<?xml version="1.0" encoding="utf-8"?>
<!-- Generator: Adobe Illustrator 28.1.0, SVG Export Plug-In . SVG Version: 6.00 Build 0)  -->
<svg version="1.1" id="Layer_1" xmlns="http://www.w3.org/2000/svg" xmlns:xlink="http://www.w3.org/1999/xlink" x="0px" y="0px"
	 viewBox="0 0 1531.3 1531.3" style="enable-background:new 0 0 1531.3 1531.3;" xml:space="preserve">
<style type="text/css">
	.st0{fill:white;}
	.st1{fill:#664481;}
</style>
<g id="budicon-like">
	<path class="st0" d="M1325.3,585.9c-10.2-10.7-24.3-16.8-39.1-16.8c-4.1,0-8.1,0.5-12.1,1.3c-14.9,3.3-30.3,6.4-45.8,9.5
		c-6.3,176.2-28.5,351.4-66.5,523.6c-11.6,49.8-56.1,84.9-107.2,84.7H477.5l-67.6-33.6l-0.1,55.1l177.4,88.2h577.2
		c51.1,0.2,95.6-35,107.2-84.7c42.3-192.8,65.5-389.3,69.3-586.7C1341.5,611.4,1335.8,596.7,1325.3,585.9z"/>
	<path class="st1" d="M1286.2,514.2c-8,0-16,0.9-23.9,2.6c-150.2,33.1-348.1,55.5-348.1,55.5c-3.6,0.7-7.2,1.1-10.9,1.1
		c-30.3-0.1-54.8-24.6-54.8-54.8V205.4c-0.1-63.1-51.3-114.1-114.3-114.1c0,0,0,0,0,0C677.6,91,628.8,131,618,186.5
		c-30.3,159.3-121.2,385.9-218.8,441.2c-14.3-26.3-41.8-42.7-71.7-42.7H217.8c-45.4,0-82.3,36.8-82.3,82.3v658.1
		c0,45.4,36.8,82.3,82.3,82.3h109.7c45.4,0,82.3-36.8,82.3-82.3v-54.4l164.5,81.8h590.1c76.5,0.1,143.1-52.5,160.6-127
		c43.1-196.4,66.8-396.5,70.7-597.5c2.1-60.8-45.4-111.9-106.3-114C1288.4,514.2,1287.3,514.2,1286.2,514.2z M354.9,1325.3
		c0,15.1-12.3,27.4-27.4,27.4H217.8c-15.1,0-27.4-12.3-27.4-27.4V667.2c0-15.1,12.3-27.4,27.4-27.4h109.7
		c15.1,0,27.4,12.3,27.4,27.4l-1.2,575.9l1.2,0.6V1325.3z M1271.6,1213.2c-11.6,49.8-56.1,84.9-107.2,84.7H587.2l-177.4-88.2
		l1-526.7c137.9-61.5,233.7-342,261-486.2c5.9-29.6,32.1-50.9,62.3-50.6c32.8,0,59.4,26.5,59.5,59.2v313.1
		c0.1,60.5,49.1,109.6,109.7,109.7c6.3,0,12.7-0.6,18.9-1.6c22-2.5,206.8-24.2,351.9-56.2c4-0.9,8-1.3,12.1-1.3
		c14.8,0,28.9,6.1,39.1,16.8c10.5,10.8,16.2,25.5,15.6,40.6C1337.1,823.8,1313.9,1020.3,1271.6,1213.2z"/>
</g>
</svg>
