<svg xmlns="http://www.w3.org/2000/svg" viewBox="0 0 25 25"><title>forward-time</title><g id="budicon-forward-time"><circle cx="12.5" cy="12.5" r="8.5" style="fill:white"/><path d="M24.5,4a.5.5,0,0,0-.5.5V7.616a12.4932,12.4932,0,1,0-2.1221,13.15.5.5,0,1,0-.75-.6621A11.5076,11.5076,0,1,1,23.0715,8H20.5a.5.5,0,0,0,0,1h4a.5.5,0,0,0,.5-.5v-4A.5.5,0,0,0,24.5,4Z" style="fill:#664481"/><path d="M12.5,6a.5.5,0,0,0-.5.5v6l0,.0016a.4956.4956,0,0,0,.1423.3462l.0038.0057,4,4a.5.5,0,0,0,.7071-.707L13,12.2932V6.5A.5.5,0,0,0,12.5,6Z" style="fill:#664481"/></g></svg>