<svg version="1.1" id="Layer_1" xmlns="http://www.w3.org/2000/svg" xmlns:xlink="http://www.w3.org/1999/xlink" x="0px" y="0px"
	 viewBox="0 0 144 144" style="enable-background:new 0 0 144 144;" xml:space="preserve">
<style type="text/css">
	.st0{fill:#581C87;}
</style>
<g id="budicon-express">
	<path class="st0" d="M142.2,58.2l-13.6-13.6c-1.7-1.7-4-2.6-6.4-2.6H108v-9c0-5-4-9-9-9H3c-1.7,0-3,1.3-3,3s1.3,3,3,3h12
		c1.7,0,3,1.3,3,3c0,1.7-1.3,3-3,3H9c-1.7,0-3,1.3-3,3c0,1.7,1.3,3,3,3h6c1.7,0,3,1.3,3,3c0,1.7-1.3,3-3,3l0,0c-1.7,0-3,1.3-3,3
		c0,1.7,1.3,3,3,3h3v45c0,5,4,9,9,9h3.3c1.6,8.1,9.6,13.4,17.7,11.7c5.9-1.2,10.5-5.8,11.7-11.7h30.6c1.7,8.1,9.6,13.4,17.7,11.7
		c5.9-1.2,10.5-5.8,11.7-11.7H135c5,0,9-4,9-9V62.5C144,60.9,143.4,59.4,142.2,58.2z M108,48h14.3c0.8,0,1.6,0.3,2.1,0.9L138,62.5
		V66h-30V48z M45,114c-5,0-9-4-9-9s4-9,9-9s9,4,9,9C54,110,50,114,45,114z M90.3,102H59.7C58,93.9,50.1,88.6,42,90.3
		c-5.9,1.2-10.5,5.8-11.7,11.7H27c-1.7,0-3-1.3-3-3V54h9c1.7,0,3-1.3,3-3c0-1.7-1.3-3-3-3h-9v-6h9c1.7,0,3-1.3,3-3s-1.3-3-3-3h-9v-3
		c0-1.7,1.3-3,3-3h72c1.7,0,3,1.3,3,3v57.3C96.1,91.5,91.5,96.1,90.3,102L90.3,102z M105,114c-5,0-9-4-9-9s4-9,9-9s9,4,9,9
		C114,110,110,114,105,114z M135,102h-15.3c-1.2-5.9-5.8-10.5-11.7-11.7V72h30v27C138,100.6,136.7,102,135,102z"/>
</g>
</svg>
