<?xml version="1.0" encoding="utf-8"?>
<!-- Generator: Adobe Illustrator 16.0.0, SVG Export Plug-In . SVG Version: 6.00 Build 0)  -->
<!DOCTYPE svg PUBLIC "-//W3C//DTD SVG 1.1//EN" "http://www.w3.org/Graphics/SVG/1.1/DTD/svg11.dtd">
<svg version="1.1" id="Layer_1" xmlns="http://www.w3.org/2000/svg" xmlns:xlink="http://www.w3.org/1999/xlink" x="0px" y="0px"
	 width="500px" height="500px" viewBox="0 0 500 500" enable-background="new 0 0 500 500" xml:space="preserve">
<g id="budicon-chat-question">
	<path fill="white" d="M470,399.02c5.522,0,10-4.478,10-10v-320c0-5.523-4.478-10-10-10h-70v259.96c0,44.183-35.817,80-80,80h-60
		v0.04h23.262c6.56,0.015,12.936,2.164,18.164,6.124l98.517,73.818L400,413.009c0-7.731,6.268-14,14-14l0,0L470,399.02z"/>
	<path fill="#664481" d="M470,39.02H30c-16.561,0.018-29.982,13.438-30,30v320c0.018,16.562,13.439,29.982,30,30h253.262
		c2.211,0.01,4.357,0.74,6.114,2.08l98.516,73.818c8.792,6.687,21.34,4.98,28.026-3.811c2.648-3.481,4.082-7.734,4.082-12.108
		V419.02h50c16.562-0.018,29.982-13.438,30-30v-320C499.982,52.458,486.562,39.037,470,39.02z M480,389.02
		c-0.008,5.52-4.48,9.992-10,10h-56c-7.727,0.013-13.988,6.272-14,14l-0.058,65.938l-98.517-73.818
		c-5.229-3.96-11.604-6.109-18.164-6.124H30c-5.52-0.008-9.992-4.48-10-10v-320c0.008-5.52,4.48-9.992,10-10h440
		c5.52,0.008,9.992,4.48,10,10V389.02z"/>
	<path fill="#664481" d="M250,119.02c-38.641,0.046-69.954,31.359-70,70c0,5.523,4.477,10,10,10s10-4.477,10-10
		c0-27.614,22.386-50,50-50s50,22.386,50,50v11.172c0.014,12.916-8.252,24.385-20.508,28.458l-18.984,6.33
		c-12.255,4.072-20.52,15.54-20.508,28.454v25.586c0,5.522,4.477,10,10,10c5.523,0,10-4.478,10-10v-25.586
		c-0.015-4.305,2.746-8.129,6.836-9.473l18.984-6.328c20.423-6.801,34.195-25.917,34.18-47.444v-11.17
		C319.954,150.379,288.641,119.066,250,119.02z"/>
	<rect x="240" y="319.02" fill="#664481" width="20" height="20"/>
</g>
</svg>
