<?xml version="1.0" encoding="utf-8"?>
<!-- Generator: Adobe Illustrator 25.0.1, SVG Export Plug-In . SVG Version: 6.00 Build 0)  -->
<svg version="1.1" id="Layer_1" xmlns="http://www.w3.org/2000/svg" xmlns:xlink="http://www.w3.org/1999/xlink" x="0px" y="0px"
	 viewBox="0 0 36 22" style="enable-background:new 0 0 36 22;" xml:space="preserve">
<style type="text/css">
	.st0{fill:#FFFFFF;}
</style>
<path d="M3,0h30c1.7,0,3,1.3,3,3v16c0,1.7-1.3,3-3,3H3c-1.7,0-3-1.3-3-3V3C0,1.3,1.3,0,3,0z"/>
<path id="XMLID_34_" class="st0" d="M9,7.1C8.7,7.5,8.2,7.8,7.6,7.7C7.5,7.2,7.8,6.6,8.1,6.3c0.3-0.4,0.9-0.7,1.4-0.7
	C9.6,6.1,9.4,6.6,9,7.1 M9.5,7.8c-0.8,0-1.5,0.4-1.8,0.4c-0.4,0-1-0.4-1.6-0.4c-0.8,0-1.6,0.5-2,1.2c-0.8,1.5-0.2,3.6,0.6,4.8
	c0.4,0.6,0.9,1.2,1.5,1.2c0.6,0,0.8-0.4,1.6-0.4c0.7,0,0.9,0.4,1.6,0.4c0.7,0,1.1-0.6,1.5-1.2c0.5-0.7,0.6-1.3,0.7-1.4
	c0,0-1.3-0.5-1.3-1.9c0-1.2,1-1.8,1-1.8C10.7,8,9.8,7.9,9.5,7.8 M14.1,6.2V15h1.4v-3h1.9c1.7,0,2.9-1.2,2.9-2.9s-1.2-2.9-2.9-2.9
	L14.1,6.2L14.1,6.2z M15.4,7.4H17c1.2,0,1.9,0.6,1.9,1.7s-0.7,1.8-1.9,1.8h-1.6V7.4z M22.8,15.1c0.9,0,1.7-0.4,2-1.1h0V15h1.3v-4.4
	c0-1.3-1-2.1-2.6-2.1c-1.5,0-2.5,0.8-2.6,2h1.2c0.1-0.5,0.6-0.9,1.3-0.9c0.8,0,1.3,0.4,1.3,1.1v0.5l-1.7,0.1
	c-1.6,0.1-2.5,0.7-2.5,1.9C20.6,14.3,21.5,15.1,22.8,15.1z M23.2,14c-0.7,0-1.2-0.4-1.2-0.9c0-0.6,0.4-0.9,1.3-0.9l1.5-0.1v0.5
	C24.8,13.5,24.1,14,23.2,14z M27.8,17.4c1.3,0,2-0.5,2.5-2.1l2.4-6.7h-1.4l-1.6,5.2h0l-1.6-5.2h-1.4l2.3,6.4l-0.1,0.4
	c-0.2,0.7-0.5,0.9-1.2,0.9c-0.1,0-0.3,0-0.4,0v1.1C27.4,17.4,27.7,17.4,27.8,17.4z"/>
</svg>
