<svg viewBox="0 0 64 64" xmlns="http://www.w3.org/2000/svg"><g id="Remove_file" data-name="Remove file"><path d="m24.54 58.83a3.79 3.79 0 0 1 -3.35-2l-2.62-4.92a1.77 1.77 0 0 0 -1.29-.91l-5.49-1a3.78 3.78 0 0 1 -3.12-4.28l.78-5.52a1.79 1.79 0 0 0 -.45-1.52l-3.88-4a3.79 3.79 0 0 1 0-5.3l3.87-4a1.79 1.79 0 0 0 .49-1.51l-.79-5.52a3.8 3.8 0 0 1 3.11-4.29l4.08-.72a1 1 0 0 1 .34 2l-4.12.66a1.8 1.8 0 0 0 -1.48 2l.79 5.52a3.77 3.77 0 0 1 -1 3.18l-3.87 4a1.81 1.81 0 0 0 0 2.52l3.88 4a3.75 3.75 0 0 1 1 3.18l-.77 5.6a1.8 1.8 0 0 0 1.49 2l5.48 1a3.77 3.77 0 0 1 2.71 2l2.67 4.86a1.81 1.81 0 0 0 2.4.78l5-2.45a3.8 3.8 0 0 1 3.34 0l5 2.44a1.8 1.8 0 0 0 2.39-.78l2.61-4.92a3.78 3.78 0 0 1 2.7-2l5.49-1a1.8 1.8 0 0 0 1.48-2l-.79-5.52a3.77 3.77 0 0 1 1-3.18l3.87-4a1.81 1.81 0 0 0 0-2.52l-3.88-4a3.75 3.75 0 0 1 -1-3.18l.74-5.53a1.8 1.8 0 0 0 -1.49-2l-5.48-1a3.77 3.77 0 0 1 -2.71-2l-2.62-4.86a1.81 1.81 0 0 0 -2.4-.78l-5 2.45a3.8 3.8 0 0 1 -3.34 0l-5-2.44a1.8 1.8 0 0 0 -2.39.78l-1.75 3.31a1 1 0 0 1 -1.77-.94l1.75-3.31a3.81 3.81 0 0 1 5-1.64l5 2.44a1.85 1.85 0 0 0 1.59 0l5-2.45a3.8 3.8 0 0 1 5 1.63l2.62 4.92a1.77 1.77 0 0 0 1.29.93l5.49 1a3.78 3.78 0 0 1 3.12 4.28l-.78 5.52a1.79 1.79 0 0 0 .52 1.48l3.88 4a3.79 3.79 0 0 1 0 5.3l-3.87 4a1.79 1.79 0 0 0 -.49 1.51l.79 5.52a3.8 3.8 0 0 1 -3.06 4.35l-5.49 1a1.81 1.81 0 0 0 -1.28.93l-2.61 4.93a3.8 3.8 0 0 1 -5 1.64l-5-2.44a1.85 1.85 0 0 0 -1.59 0l-5 2.45a3.81 3.81 0 0 1 -1.74.32z"/><path d="m48.94 30.5a17 17 0 0 0 -30.19-9.15 16.92 16.92 0 0 0 -3.75 11.59 17 17 0 0 0 28.24 11.81 16.92 16.92 0 0 0 5.7-14.25zm-7.43-4.56a29.73 29.73 0 0 0 -12.06 13.4 1 1 0 0 1 -.91.58 1 1 0 0 1 -.9-.65 12.88 12.88 0 0 0 -1.29-2.57 13.15 13.15 0 0 0 -3.86-3.86 1 1 0 0 1 1.1-1.68 15.19 15.19 0 0 1 4.41 4.45c.21.32.4.65.59 1a31.27 31.27 0 0 1 4.77-6.66 31.84 31.84 0 0 1 7.14-5.72 1 1 0 0 1 1 1.73z" fill="#2689db"/></g></svg>