<svg fill="none" height="48" viewBox="0 0 120 48" width="120" xmlns="http://www.w3.org/2000/svg" xmlns:xlink="http://www.w3.org/1999/xlink"><clipPath id="a"><path d="m0 12h120v23.232h-120z"/></clipPath><g clip-path="url(#a)" fill="#94a3b8"><path d="m9.39962 15.6657c-1.40712 0-1.82926.6191-1.82926 1.9981v2.2796h3.77114l-.3659 3.7148h-3.40524v11.2289h-4.53096v-11.2289h-3.0394v-3.6867h3.0394v-2.2232c0-3.7711 1.5197-5.7411 5.71295-5.7411.87242 0 1.77295.0563 2.64535.1688v3.4897"/><path d="m11.6512 26.9509c0-4.1651 1.97-7.3171 6.1351-7.3171 2.2514 0 3.6304 1.1539 4.3058 2.6173v-2.2796h4.3339v14.9437h-4.3621v-2.2514c-.6191 1.4353-2.0544 2.561-4.3058 2.561-4.1369 0-6.1351-3.1238-6.1351-7.3171m4.5591.0563c0 2.2233.8162 3.7149 2.9269 3.7149 1.8574 0 2.7861-1.3509 2.7861-3.4897v-1.5197c0-2.1389-.9569-3.4897-2.7861-3.4897-2.1107 0-2.9269 1.4634-2.9269 3.7148z"/><path d="m35.8253 19.6338c1.7449 0 3.4334.3659 4.334 1.0132l-1.0131 3.2082c-.9288-.4503-1.97-.6754-3.0113-.6754-2.4484 0-3.5178 1.4071-3.5178 3.8274v.8724c0 2.4203 1.0694 3.8274 3.5178 3.8274 1.0413 0 2.0825-.2533 3.0113-.7036l1.0131 3.2083c-.9006.6191-2.561 1.0131-4.334 1.0131-5.3189 0-7.711-2.8424-7.711-7.4296v-.7036c0-4.5872 2.3921-7.4578 7.711-7.4578z"/><path d="m40.75 27.9922v-1.3227c0-4.2496 2.4203-7.0357 7.3452-7.0357 4.6435 0 6.6979 2.8143 6.6979 6.9794v2.3921h-9.5121c.0844 2.0544 1.0131 2.955 3.5178 2.955 1.6322 0 3.2645-.3096 4.8124-.9006l.8161 3.0957c-1.182.6191-3.6304 1.0976-5.7974 1.0976-5.7411-.0282-7.8799-2.8706-7.8799-7.2608zm4.531-1.97h5.4596v-.3659c0-1.6322-.6473-2.9268-2.6454-2.9268-2.0263 0-2.8142 1.2946-2.8142 3.2927z"/><path d="m71.5661 27.9077c0 4.1651-1.9981 7.3171-6.1632 7.3171-2.2514 0-3.8274-1.1257-4.4465-2.561v2.2514h-4.2777v-22.4578l4.531-.394v9.9907c.6472-1.3227 2.1107-2.3922 4.2214-2.3922 4.1369 0 6.1632 3.1239 6.1632 7.3171m-4.5591-.1126c0-2.1106-.8161-3.6866-2.9831-3.6866-1.8574 0-2.8424 1.3227-2.8424 3.4615v1.576c0 2.1388 1.0131 3.4615 2.8424 3.4615 2.167 0 2.9831-1.576 2.9831-3.6866z"/><path d="m73.0586 27.7952v-.7599c0-4.3058 2.4484-7.4015 7.4296-7.4015 4.9813 0 7.4297 3.0957 7.4297 7.4015v.7599c0 4.3058-2.4484 7.4015-7.4297 7.4015-4.9812 0-7.4296-3.0676-7.4296-7.4015zm10.3565-1.0694c0-1.97-.8162-3.546-2.9269-3.546s-2.9268 1.576-2.9268 3.546v1.4071c0 1.97.8161 3.5459 2.9268 3.5459s2.9269-1.5759 2.9269-3.5459z"/><path d="m89.4648 27.7952v-.7599c0-4.3058 2.4484-7.4015 7.4297-7.4015 4.9815 0 7.4295 3.0957 7.4295 7.4015v.7599c0 4.3058-2.448 7.4015-7.4295 7.4015-4.9813 0-7.4297-3.0676-7.4297-7.4015zm10.3565-1.0694c0-1.97-.8161-3.546-2.9268-3.546s-2.9268 1.576-2.9268 3.546v1.4071c0 1.97.8161 3.5459 2.9268 3.5459s2.9268-1.5759 2.9268-3.5459z"/><path d="m110.544 27.0916 4.475-7.1482h4.784l-4.672 7.4015 4.869 7.5703h-4.813l-4.643-7.317v7.317h-4.503v-22.4578l4.503-.4221"/></g></svg>