<svg fill="none" height="48" viewBox="0 0 120 48" width="120" xmlns="http://www.w3.org/2000/svg" xmlns:xlink="http://www.w3.org/1999/xlink"><clipPath id="a"><path d="m0 4h120v39.168h-120z"/></clipPath><g clip-path="url(#a)" fill="#94a3b8"><path d="m14.7781 4.00345h1.0671c3.7047.08054 7.349 1.57047 9.9665 4.20805-.9665.98658-1.953 1.9329-2.8993 2.9195-1.4698-1.32889-3.2416-2.35574-5.1745-2.71816-2.8591-.60402-5.9396-.0604-8.3356 1.57047-2.61745 1.71139-4.38927 4.61079-4.77182 7.71139-.42282 3.0604.44296 6.2819 2.43624 8.6577 1.91276 2.3155 4.83218 3.7651 7.85238 3.8658 2.8188.1611 5.7584-.7047 7.8121-2.6778 1.6107-1.3893 2.3557-3.5034 2.5973-5.5571-3.3423 0-6.6846.0201-10.0269 0v-4.1476h14.0739c.7248 4.4496-.3222 9.463-3.7047 12.6443-2.2551 2.255-5.3759 3.5839-8.5571 3.8456-3.0805.302-6.2617-.2819-9-1.7718-3.28188-1.7517-5.89933-4.7114-7.187916-8.1946-1.208054-3.2014-1.228188-6.8255-.100671-10.047 1.026847-2.9396 2.999997-5.53694 5.536917-7.34902 2.43624-1.79195 5.39597-2.77852 8.41607-2.95973z"/><path d="m95.5166 5.05045h4.3087v28.75165c-1.4295 0-2.8792.0202-4.3087-.0201.0201-9.5638 0-19.1477 0-28.73155z"/><path d="m38.9594 15.0169c2.6578-.5034 5.537.0604 7.7316 1.651 1.9933 1.4094 3.3825 3.6242 3.8054 6.0403.5436 2.7986-.141 5.859-1.9531 8.0738-1.953 2.4765-5.1543 3.8054-8.2751 3.604-2.8591-.1611-5.6376-1.5906-7.3289-3.9262-1.9127-2.5771-2.3758-6.1208-1.3289-9.1409 1.047-3.2416 4.0068-5.7181 7.349-6.302zm.6041 3.8255c-1.0873.2819-2.094.906-2.8188 1.7919-1.953 2.3356-1.8322 6.141.3221 8.3155 1.2282 1.2483 3.0806 1.8322 4.792 1.4899 1.5906-.2819 2.9798-1.349 3.7449-2.7584 1.3289-2.396.9463-5.698-1.0872-7.5704-1.3087-1.2081-3.2215-1.7115-4.953-1.2685z"/><path d="m60.3017 15.0169c3.0403-.5839 6.3625.2617 8.6376 2.396 3.7047 3.3221 4.1074 9.5436.9463 13.3691-1.9127 2.4161-5.0134 3.7449-8.0738 3.604-2.9194-.0805-5.7986-1.5302-7.5302-3.9262-1.953-2.6376-2.3758-6.2617-1.2684-9.3422 1.1073-3.141 4.0067-5.537 7.2885-6.1007zm.6041 3.8255c-1.0873.2819-2.094.906-2.8188 1.7718-1.9329 2.2953-1.8524 6.0403.2215 8.2349 1.2281 1.3087 3.1409 1.953 4.9127 1.5906 1.5705-.302 2.9799-1.349 3.745-2.7584 1.3087-2.4161.9262-5.7181-1.1275-7.5906-1.3088-1.208-3.2215-1.6913-4.9329-1.2483z"/><path d="m78.4028 16.1847c2.3154-1.4497 5.396-1.8524 7.8926-.604.7853.3422 1.4296.9261 2.0537 1.51.0202-.5436 0-1.1074.0202-1.6711 1.3489.0201 2.6979 0 4.0671.0201v17.7584c-.0202 2.6779-.7047 5.5168-2.6376 7.4698-2.1141 2.1544-5.3557 2.8188-8.2752 2.3758-3.1208-.463-5.8389-2.7382-7.047-5.6174 1.2081-.5839 2.4765-1.047 3.7249-1.5906.7047 1.651 2.1342 3.0604 3.9261 3.3825 1.792.3222 3.8658-.1208 5.0336-1.6107 1.2483-1.5302 1.2483-3.6242 1.1879-5.4966-.9262.906-1.9933 1.7114-3.2819 2.0134-2.7986.7852-5.8792-.1812-8.0335-2.0738-2.1745-1.8927-3.4631-4.8121-3.3423-7.7115.0604-3.2818 1.9128-6.4429 4.7114-8.1543zm4.1678 2.5772c-1.2282.2013-2.3758.8859-3.1611 1.8322-1.8926 2.255-1.8926 5.859.0202 8.0738 1.0872 1.3087 2.8389 2.0336 4.5302 1.8524 1.5906-.1611 3.0604-1.1678 3.8456-2.5571 1.3289-2.3557 1.1074-5.557-.6846-7.6107-1.1073-1.2685-2.8792-1.8927-4.5503-1.5906z"/><path d="m105 17.2115c2.416-2.255 6.141-3.0201 9.242-1.8322 2.939 1.1074 4.812 3.906 5.758 6.7852-4.369 1.8121-8.718 3.6041-13.087 5.4161.604 1.1477 1.53 2.1947 2.778 2.6175 1.752.6242 3.846.4027 5.316-.7651.584-.443 1.047-1.0268 1.49-1.5906 1.107.745 2.214 1.4698 3.322 2.2148-1.571 2.3557-4.208 4.0067-7.047 4.2684-3.141.3826-6.483-.8255-8.517-3.2819-3.342-3.8657-3.02-10.349.745-13.8322zm2.154 3.7249c-.684.9865-.966 2.1946-.946 3.3825 2.92-1.208 5.839-2.4161 8.758-3.6443-.483-1.1275-1.651-1.8121-2.838-1.9933-1.913-.3423-3.906.6846-4.974 2.2551z"/></g></svg>