<svg fill="none" height="48" viewBox="0 0 120 48" width="120" xmlns="http://www.w3.org/2000/svg" xmlns:xlink="http://www.w3.org/1999/xlink"><clipPath id="a"><path d="m0 9h120v29.088h-120z"/></clipPath><g clip-path="url(#a)"><g fill="#94a3b8"><path d="m118.256 32.5128c.324-.0808.485-.2424.485-.5656 0-.404-.242-.5656-.727-.5656h-.808v2.02h.323v-.8888h.323l.566.8888h.323zm-.323-.2424h-.323v-.6464h.404c.242 0 .485 0 .485.3232s-.243.3232-.566.3232z"/><path d="m118.015 30.4928c-1.051 0-1.939.808-1.939 1.9392 0 1.0504.808 1.9392 1.939 1.9392 1.05 0 1.939-.808 1.939-1.9392-.081-1.1312-.889-1.9392-1.939-1.9392zm0 3.5552c-.889 0-1.616-.7272-1.616-1.6968s.727-1.6968 1.616-1.6968 1.616.7272 1.616 1.6968-.727 1.6968-1.616 1.6968zm-117.968125-20.7656h4.524805v16.4024h8.24162v4.1208h-12.766425zm14.786425 6.6256h4.2824v13.8976h-4.2824zm2.1816-6.9488c1.3736 0 2.5048 1.1312 2.5048 2.5048s-1.1312 2.5048-2.5048 2.5048-2.5048-1.1312-2.5048-2.5048 1.0504-2.5048 2.5048-2.5048zm20.1192.3232h4.3632v12.2816l4.848-5.656h5.3328l-5.656 6.3832 5.4944 7.5144h-5.4136l-4.6056-6.868v6.868h-4.3632zm-15.5944 6.6256h4.1208v1.8584h.0808c.5656-1.1312 2.02-2.2624 4.1208-2.2624 4.3632 0 5.1712 2.9088 5.1712 6.6256v7.5952h-4.2824v-6.7872c0-1.616 0-3.7168-2.2624-3.7168s-2.5856 1.7776-2.5856 3.5552v6.868h-4.2824v-13.736z"/><path d="m60.7272 25.2408c0-1.4544-1.1312-2.6664-2.6664-2.6664-1.8584 0-2.9088 1.2928-3.0704 2.6664zm3.636 6.1408c-1.3736 1.7776-3.636 2.7472-5.8984 2.7472-4.2824 0-7.7568-2.9088-7.7568-7.3528s3.4744-7.3528 7.7568-7.3528c4.04 0 6.5448 2.9088 6.5448 7.3528v1.3736h-10.0192c.3232 1.616 1.616 2.6664 3.232 2.6664 1.3736 0 2.3432-.7272 3.0704-1.6968zm9.6152-8.1608c-2.1816 0-3.4744 1.4544-3.4744 3.5552s1.2928 3.5552 3.4744 3.5552 3.4744-1.4544 3.4744-3.5552-1.2928-3.5552-3.4744-3.5552zm7.4336 10.5848h-3.9592v-1.8584h-.0808c-.6464.9696-2.3432 2.1816-4.2824 2.1816-4.1208 0-6.868-2.9896-6.868-7.1912 0-3.8784 2.424-7.4336 6.3832-7.4336 1.7776 0 3.4744.4848 4.444 1.8584h.0808v-8.08h4.2824z"/><path d="m112.682 9h-24.8061c-1.212 0-2.1816.9696-2.1816 2.1008v24.8864c0 1.1312.9696 2.1008 2.1816 2.1008h24.8061c1.212 0 2.181-.9696 2.181-2.1008v-24.8864c0-1.1312-.969-2.1008-2.181-2.1008z"/></g><path d="m90.0576 19.908h4.2824v13.8976h-4.2824zm2.1816-6.868c1.3736 0 2.5048 1.1312 2.5048 2.5048s-1.1312 2.5048-2.5048 2.5048-2.5048-1.1312-2.5048-2.5048c0-1.4544 1.1312-2.5048 2.5048-2.5048zm4.848 6.868h4.1208v1.8584h.081c.565-1.1312 2.02-2.2624 4.121-2.2624 4.363 0 5.171 2.9088 5.171 6.6256v7.5952h-4.283v-6.7872c0-1.616 0-3.7168-2.262-3.7168s-2.586 1.7776-2.586 3.5552v6.868h-4.282v-13.736z" fill="#fff"/></g></svg>