<svg fill="none" height="48" viewBox="0 0 120 48" width="120" xmlns="http://www.w3.org/2000/svg" xmlns:xlink="http://www.w3.org/1999/xlink"><clipPath id="a"><path d="m0 11h120v25.632h-120z"/></clipPath><g clip-path="url(#a)" fill="#94a3b8"><path d="m120 22.596v-2.1103h-2.62v-3.2809l-.089.0272-2.461.7531-.049.0148v2.4859h-3.885v-1.3849c0-.6448.144-1.1383.428-1.4674.283-.3251.686-.4904 1.201-.4904.37 0 .753.0871 1.139.259l.097.0432v-2.2225l-.046-.0167c-.36-.1293-.849-.1944-1.455-.1944-.765 0-1.459.1663-2.065.496-.606.3301-1.083.8014-1.417 1.4006-.333.5986-.502 1.2898-.502 2.0548v1.5226h-1.824v2.1103h1.824v8.8907h2.62v-8.8907h3.885v5.6499c0 2.3269 1.098 3.506 3.262 3.506.356 0 .73-.0416 1.113-.1232.389-.0839.654-.1675.81-.2569l.034-.0205v-2.1298l-.106.0704c-.142.0947-.319.1722-.527.2297-.208.0587-.383.088-.517.088-.508 0-.883-.1366-1.115-.4063-.236-.2721-.355-.7479-.355-1.4135v-5.1938zm-19.398 7.014c-.9513 0-1.7009-.3153-2.2292-.9363-.5316-.6242-.8009-1.5141-.8009-2.6448 0-1.1665.2693-2.0795.8011-2.7147.5287-.631 1.2711-.9513 2.207-.9513.909 0 1.632.3059 2.15.9097.52.6068.784 1.5125.784 2.6926 0 1.1946-.248 2.1123-.738 2.7261-.486.6092-1.218.9187-2.174.9187zm.116-9.3894c-1.814 0-3.2548.5316-4.2822 1.5799-1.0266 1.0485-1.5471 2.4994-1.5471 4.3128 0 1.7225.5081 3.1079 1.5103 4.1173 1.0023 1.0096 2.3663 1.5211 4.054 1.5211 1.758 0 3.17-.539 4.197-1.6018 1.027-1.0617 1.547-2.4989 1.547-4.27 0-1.7494-.488-3.1451-1.451-4.1478-.964-1.003-2.319-1.5115-4.028-1.5115zm-10.053 0c-1.2339 0-2.2547.3157-3.0344.938-.7845.626-1.1824 1.4471-1.1824 2.4406 0 .5165.0859.9752.2549 1.3643.1701.3904.4332.7341.7829 1.0226.347.2862.8826.5859 1.5923.8908.5966.2455 1.0416.4532 1.3243.6169.2762.1604.4723.3217.583.4787.1076.1537.1622.3641.1622.6236 0 .7391-.5535 1.0987-1.6924 1.0987-.4224 0-.9042-.0882-1.4321-.2621-.5241-.1712-1.0187-.422-1.4666-.7436l-.1087-.078v2.5221l.0399.0186c.3707.1711.838.3154 1.3888.4289.5498.1137 1.0493.1715 1.4832.1715 1.339 0 2.4173-.3172 3.2041-.9432.7918-.6303 1.1931-1.4708 1.1931-2.4987 0-.7415-.216-1.3774-.6418-1.8903-.4229-.5086-1.1569-.9756-2.1806-1.3884-.8156-.3274-1.3381-.5991-1.5537-.8077-.2078-.2016-.3133-.4865-.3133-.8474 0-.32.1303-.5763.3976-.7838.2694-.2086.6445-.3147 1.1149-.3147.4364 0 .883.0689 1.3271.204.4438.1352.8336.3161 1.159.5375l.107.0731v-2.3924l-.0411-.0177c-.3002-.1287-.696-.2389-1.1768-.3283-.4786-.0888-.9128-.1336-1.2904-.1336zm-11.0461 9.3894c-.9506 0-1.7005-.3153-2.2286-.9363-.5317-.6242-.8005-1.5139-.8005-2.6448 0-1.1665.2692-2.0795.8011-2.7147.5281-.631 1.2705-.9513 2.207-.9513.908 0 1.6311.3059 2.1492.9097.5206.6068.7847 1.5125.7847 2.6926 0 1.1946-.2485 2.1123-.7384 2.7261-.4865.6092-1.2177.9187-2.1745.9187zm.1168-9.3894c-1.8145 0-3.2554.5316-4.2822 1.5799-1.0266 1.0485-1.5475 2.4994-1.5475 4.3128 0 1.7232.5085 3.1079 1.5107 4.1173 1.0023 1.0096 2.3662 1.5211 4.0537 1.5211 1.7581 0 3.1706-.539 4.1975-1.6018 1.0265-1.0617 1.5469-2.4989 1.5469-4.27 0-1.7494-.4882-3.1451-1.4516-4.1478-.9638-1.003-2.319-1.5115-4.0275-1.5115zm-9.8062 2.1702v-1.9051h-2.5877v11.0008h2.5877v-5.6274c0-.9569.217-1.743.6451-2.3367.4226-.5867.9859-.884 1.6736-.884.233 0 .4947.0384.7781.1145.2804.0755.4836.1576.6034.244l.1087.0788v-2.6089l-.0419-.0179c-.241-.1024-.5819-.1541-1.0133-.1541-.6503 0-1.2322.209-1.7306.6204-.4376.3616-.7538.8573-.9956 1.4756zm-7.2218-2.1702c-1.1872 0-2.2461.2546-3.1468.7564-.9025.503-1.6005 1.2211-2.0754 2.1342-.4728.9109-.7129 1.9749-.7129 3.1615 0 1.0394.2327 1.9933.6928 2.8339.4602.8421 1.1117 1.5009 1.9364 1.9578.8234.4563 1.7752.6877 2.829.6877 1.2298 0 2.2797-.2459 3.1216-.7308l.034-.0195v-2.3707l-.1088.0794c-.3813.2777-.8074.4995-1.266.6592-.4573.1596-.8743.2403-1.24.2403-1.0153 0-1.8305-.3177-2.4222-.9441-.5929-.6272-.8936-1.5079-.8936-2.6162 0-1.1152.3136-2.0185.9315-2.6851.616-.6646 1.4327-1.0017 2.427-1.0017.8506 0 1.6794.288 2.4636.8568l.1085.0789v-2.498l-.0351-.0198c-.2951-.1651-.6975-.3015-1.1971-.405-.4976-.1032-.9842-.1552-1.4465-.1552zm-7.7173.2652h-2.5877v11.0007h2.5877zm-1.2674-4.6864c-.4259 0-.7974.145-1.1026.4323-.3064.2881-.4619.6509-.4619 1.079 0 .4214.1536.7775.4572 1.058.3016.2796.6742.4213 1.1074.4213.4331 0 .8071-.1417 1.1123-.4209.3072-.2809.4629-.6369.4629-1.0584 0-.4132-.1516-.7722-.4502-1.0674-.2985-.2946-.6772-.4439-1.1251-.4439zm-6.4565 3.8747v11.8124h2.6408v-15.3503h-3.655l-4.6459 11.4017-4.5085-11.4017h-3.804v15.3501h2.4818v-11.8133h.0852l4.7609 11.8135h1.8729l4.6866-11.8124z"/><path d="m12.1734 23.1799h-12.1734v-12.1733h12.1734z"/><path d="m25.6145 23.1799h-12.1731v-12.1733h12.1731z"/><path d="m12.173 36.6254h-12.173v-12.1732h12.173z"/><path d="m25.6145 36.6254h-12.1731v-12.1732h12.1731z"/></g></svg>