<svg fill="none" height="48" viewBox="0 0 120 48" width="120" xmlns="http://www.w3.org/2000/svg" xmlns:xlink="http://www.w3.org/1999/xlink"><clipPath id="a"><path d="m0 5h120v38.208h-120z"/></clipPath><g clip-path="url(#a)"><path d="m-.00097656 35.8213v-23.226l20.54617656-7.59319 11.1661 3.57229v31.2666l-11.1661 3.3661-20.54617656-7.3858 20.54617656 2.4724v-27.0377l-13.39977 3.1267v18.3132l-7.14580353 3.1254zm53.59467656.1628c-3.2334 0-5.8239-1.0667-7.7699-3.1984-1.9465-2.1305-2.9186-4.9044-2.9186-8.3193 0-3.6688.9913-6.5958 2.9741-8.78 1.9827-2.1841 4.6818-3.2762 8.0955-3.2762 3.1496 0 5.6865 1.0607 7.6114 3.181 1.9248 2.1214 2.8872 4.8941 2.8872 8.3192 0 3.7219-.9871 6.664-2.959 8.8283-1.9719 2.1642-4.6113 3.2448-7.9207 3.2448zm.1906-21.1558c-2.3964 0-4.3418.8648-5.8373 2.593-1.4954 1.7283-2.2432 3.9981-2.2432 6.8075 0 2.8095.7297 5.0714 2.1872 6.784s3.3588 2.5689 5.7021 2.5689c2.502 0 4.475-.8165 5.9169-2.4495 1.4418-1.633 2.1636-3.9178 2.1636-6.8551 0-3.0121-.7007-5.3392-2.1003-6.983-1.3984-1.6432-3.3287-2.4664-5.789-2.4664zm20.194-3.6917c-1.4744 0-2.6992.5024-3.6845 1.4937-.9859.9908-1.4798 2.3403-1.4798 4.0475v2.6388h-2.7775v2.233h2.7775v14.0546h2.5966v-14.0546h6.3498v14.0546h2.5966v-14.0546h3.8111v-2.233h-3.8111v-2.5128c0-2.3005.9124-3.4468 2.7359-3.4468.6471 0 1.2223.1326 1.7307.4185v-2.3446c-.4661-.1905-1.0891-.2937-1.8838-.2937-1.4744 0-2.713.503-3.699 1.4937-.9865.9914-1.4798 2.341-1.4798 4.0475v2.6388h-6.3504v-2.5122c0-2.3011.9106-3.4474 2.7353-3.4474.6464 0 1.2217.1326 1.7307.4185v-2.3446c-.4668-.1923-1.103-.2949-1.8983-.2949zm13.9828 4.0403c-.2207.004-.44-.0361-.645-.1182-.2049-.082-.3914-.2042-.5484-.3594-.3286-.3184-.4932-.7206-.4932-1.2085 0-.4878.1646-.893.4932-1.2163.1558-.1573.3419-.2815.547-.3649s.425-.1244.6464-.1205c.477 0 .8822.161 1.2169.4854.3347.3233.5005.7285.5005 1.2163.0037.2228-.0389.4438-.1251.6492-.0861.2054-.214.3907-.3754.5442-.3341.3281-.7399.4927-1.2169.4927zm1.2724 20.4225h-2.6087v-16.2876h2.6081v16.2876zm14.8195-.7471c-1.25.7525-2.736 1.1294-4.453 1.1294-2.3222 0-4.1964-.7556-5.6219-2.2673-1.4256-1.5118-2.1408-3.4692-2.1408-5.8771 0-2.6834.7689-4.838 2.3066-6.4656 1.5383-1.6281 3.5898-2.4416 6.1561-2.4416 1.43 0 2.693.2653 3.785.796v2.6714c-1.208-.8479-2.502-1.2724-3.88-1.2724-1.6657 0-3.0309.597-4.0971 1.7897-1.0655 1.1934-1.598 2.7595-1.598 4.7 0 1.9092.5005 3.4149 1.5022 4.5178 1.0028 1.1024 2.3457 1.6535 4.0329 1.6535 1.42 0 2.758-.4722 4.008-1.4153zm15.946-6.7436h-11.5c.043 1.8127.53 3.2123 1.463 4.1988.934.9853 2.216 1.4786 3.85 1.4786 1.834 0 3.521-.6042 5.058-1.8133v2.4495c-1.431 1.039-3.324 1.5588-5.678 1.5588-2.302 0-4.11-.7393-5.424-2.2191-1.315-1.4798-1.973-3.5596-1.973-6.2431 0-2.5345.719-4.5998 2.155-6.196 1.437-1.5962 3.221-2.3934 5.352-2.3934 2.132 0 3.781.6892 4.947 2.0677s1.749 3.2925 1.749 5.742v1.3689zm-2.671-2.2113c-.011-1.5058-.374-2.6774-1.091-3.515-.715-.8382-1.71-1.2567-2.982-1.2567-1.23 0-2.274.4408-3.133 1.3206-.859.8804-1.389 2.031-1.59 3.4511h8.795z" fill="#94a3b8"/></g></svg>