<?xml version="1.0" encoding="utf-8"?>
<!-- Generator: Adobe Illustrator 16.0.0, SVG Export Plug-In . SVG Version: 6.00 Build 0)  -->
<!DOCTYPE svg PUBLIC "-//W3C//DTD SVG 1.1//EN" "http://www.w3.org/Graphics/SVG/1.1/DTD/svg11.dtd">
<svg class="icon" version="1.1" xmlns="http://www.w3.org/2000/svg" xmlns:xlink="http://www.w3.org/1999/xlink" xml:space="preserve" width="36" height="22" viewBox="0 0 36 22"><rect data-name="Rounded Rectangle 55" width="36" height="22" rx="3" ry="3" fill="#007ecd"></rect><path d="M23.013 12h2.692v.644h-1.868v.556h1.816v.567h-1.816v.591h1.868v.628h-2.692V12zm7.894 1.166c1.012.046 1.1.5 1.1.978a.943.943 0 0 1-1.055.862h-1.73v-.642h1.348c.228 0 .569 0 .569-.287 0-.137-.06-.224-.3-.247a11.87 11.87 0 0 0-.569-.035c-.914-.021-1.127-.427-1.127-.92a.881.881 0 0 1 .982-.868h1.73v.641H30.58c-.287 0-.6-.03-.6.26 0 .183.153.22.348.237.072-.005.518.016.579.016zm-3.1 0c1.012.046 1.1.5 1.1.978a.944.944 0 0 1-1.056.862h-1.73v-.642h1.348c.229 0 .57 0 .57-.287 0-.137-.06-.224-.3-.247a11.949 11.949 0 0 0-.569-.035c-.914-.021-1.127-.427-1.127-.92a.881.881 0 0 1 .981-.868h1.73v.641h-1.265c-.289 0-.6-.03-.6.26 0 .183.154.22.349.237.062-.005.508.016.568.016zM18.041 12h-2.89l-.944.928-.913-.928h-3.246v2.992h3.141l.988-.988.966 1h1.58v-1.016h1.108a.991.991 0 0 0 1.206-1.062.887.887 0 0 0-.996-.926zm-5.283 2.357h-1.9v-.591h1.816V13.2H10.86v-.562h2l.8.815zm3.149.347l-1.183-1.248 1.183-1.169v2.417zm1.857-1.344h-1.026v-.718h1.029a.369.369 0 1 1-.003.72zm4.255.269a.811.811 0 0 0 .57-.828.857.857 0 0 0-.989-.8h-2.141v2.992h.823v-1.055h1.079a.444.444 0 0 1 .4.507l.022.548h.8l-.03-.615a.6.6 0 0 0-.534-.747zm-.711-.31h-1.026v-.677h1.03a.379.379 0 0 1 .453.343c0 .203-.12.336-.457.336zM20.939 11V8h-.832v3h.832zM13.3 8h2.719v.644h-1.887v.562h1.834v.567h-1.834v.591h1.887V11H13.3V8zm5.8 1.629a.809.809 0 0 0 .575-.828.864.864 0 0 0-1-.8h-2.163V11h.832V9.94h1.089a.445.445 0 0 1 .409.507l.02.553h.809l-.03-.615a.6.6 0 0 0-.541-.753zm-.718-.309h-1.037v-.678h1.04a.382.382 0 0 1 .458.344c-.004.203-.125.337-.465.337zm-7-1.32l-1.021 2.007L9.338 8H8.033v2.882L6.581 8h-1.1L4 11h.878l.324-.668h1.661L7.19 11h1.675V8.779L9.977 11h.757l1.138-2.184V11h.828V8h-1.327zM5.519 9.678l.5-1.045.517 1.045H5.523zM29.526 8v2.072L28.126 8h-1.23v2.81L25.475 8h-1.1l-1.146 2.318s-.484 0-.533-.011a.609.609 0 0 1-.518-.689V9.4c0-.7.431-.753.984-.753h.514V8H22.59a1.518 1.518 0 0 0 .083 3h1.1l.325-.668h1.661l.325.668h1.641V8.808l1.5 2.192h1.135V8h-.832zm-5.111 1.681l.5-1.046.522 1.046H24.42z" fill="#fff" fill-rule="evenodd"></path></svg>