<?xml version="1.0" encoding="utf-8"?>
<!-- Generator: Adobe Illustrator 16.0.0, SVG Export Plug-In . SVG Version: 6.00 Build 0)  -->
<!DOCTYPE svg PUBLIC "-//W3C//DTD SVG 1.1//EN" "http://www.w3.org/Graphics/SVG/1.1/DTD/svg11.dtd">
<svg class="icon" version="1.1" xmlns="http://www.w3.org/2000/svg" xmlns:xlink="http://www.w3.org/1999/xlink" xml:space="preserve" width="36" height="22" viewBox="0 0 36 22"><rect data-name="Rounded Rectangle 52" width="36" height="22" rx="3" ry="3" fill="#224dba"></rect><path d="M11 14.953H8.922L7.364 8.735a1 1 0 0 0-.462-.658 6.546 6.546 0 0 0-1.9-.658v-.24H8.35a.886.886 0 0 1 .866.778l.808 4.485 2.077-5.263h2.021zm4.272 0h-1.963l1.616-7.774h1.963zm4.155-5.62a.768.768 0 0 1 .808-.658 3.512 3.512 0 0 1 1.9.359l.347-1.674a4.769 4.769 0 0 0-1.79-.36c-1.9 0-3.29 1.077-3.29 2.572a2.522 2.522 0 0 0 1.674 2.093c.75.359 1.039.6.981.957a.978.978 0 0 1-1.154.777 4.759 4.759 0 0 1-2.02-.479l-.347 1.675a5.436 5.436 0 0 0 2.136.419c2.136.059 3.463-1.017 3.463-2.632 0-2.033-2.713-2.153-2.713-3.049zm9.582 5.62L27.45 7.179h-1.67a.873.873 0 0 0-.809.6l-2.886 7.176h2.021l.4-1.135h2.482l.231 1.135h1.79zm-2.944-5.68l.577 2.93h-1.616z" fill="#fff" fill-rule="evenodd"></path></svg>