<svg id="_Layer_1" data-name="Layer 1" xmlns="http://www.w3.org/2000/svg" viewBox="0 0 1300 900">
  <defs>
    <style>
      .cls-1 {
        fill: #ffffff;
        font-family: 'Arial', sans-serif;
        font-weight: bold;
        font-size: 24px;
      }
      .cls-2 {
        fill: #FF6347; /* Tomato color */
      }
      .cls-3 {
        fill: #4682B4; /* SteelBlue color */
      }
      .cls-4 {
        fill: #32CD32; /* LimeGreen color */
      }
    </style>
  </defs>
  <polygon class="cls-2" points="440.43 475.35 440.43 392.55 361.31 392.55 361.31 470.01 357.8 473.57 317.7 473.57 317.7 518.87 363 518.87 363 478.46 366.06 475.35 440.43 475.35"/>
  <g>
    <rect class="cls-3" x="470.38" y="392.55" width="15.7" height="82.91"/>
    <polygon class="cls-3" points="497.72 475.46 513.2 475.46 513.2 431.46 530.88 431.46 530.88 475.46 546.36 475.46 546.36 418.2 497.72 418.2 497.72 475.46"/>
    <path class="cls-3" d="m608.82,414.66c0-14.37-8.18-22.88-22.89-22.88s-23.1,8.84-23.1,22.88v3.54h-5.53v13.27h5.53v44h15.48v-44h9.18v-13.27h-9.18v-3.76c0-5.64,2.43-9.18,7.63-9.18,4.87,0,7.41,3.54,7.41,9.18v61.02h23.55v-13.49h-8.07v-47.31Z"/>
    <polygon class="cls-3" points="657.07 461.97 639.82 461.97 639.82 418.2 624.35 418.2 624.35 475.46 672.54 475.46 672.54 418.2 657.07 418.2 657.07 461.97"/>
    <path class="cls-3" d="m709.85,416.43c-17.8,0-30.51,12.6-30.51,30.4s12.6,30.4,30.73,30.4c9.73,0,17.58-3.43,23.44-11.06l-8.95-9.4c-3.76,4.75-7.96,6.74-14.37,6.74-7.96,0-13.15-4.31-14.81-11.83h42.12c.33-1.44.44-3.32.44-4.87,0-17.69-11.28-30.4-28.08-30.4Zm-14.48,25.43c1.55-7.41,6.63-11.94,14.15-11.94s12.16,4.75,13.27,11.94h-27.42Z"/>
    <polygon class="cls-3" points="744.16 475.46 759.64 475.46 759.64 431.46 777.32 431.46 777.32 475.46 792.8 475.46 792.8 418.2 744.16 418.2 744.16 475.46"/>
    <path class="cls-3" d="m832.03,429.92c6.74,0,10.83,3.09,13.6,7.18l9.4-9.4c-5.31-7.3-13.04-11.28-22.99-11.28-17.8,0-30.84,12.71-30.84,30.4s12.93,30.4,30.84,30.4c10.39,0,18.68-5.08,22.88-11.94l-9.07-9.18c-2.65,4.09-6.96,7.41-13.82,7.41-9.07,0-15.26-6.97-15.26-16.91s6.19-16.69,15.26-16.69Z"/>
    <polygon class="cls-3" points="912.59 403.61 897.11 403.61 897.11 418.2 891.69 418.2 891.69 431.46 897.11 431.46 897.11 475.46 924.2 475.46 924.2 461.97 912.59 461.97 912.59 431.46 925.85 431.46 925.85 418.2 912.59 418.2 912.59 403.61"/>
    <path class="cls-3" d="m966.83,418.2v35.15c0,5.31-3.87,8.84-8.84,8.84s-8.95-3.54-8.95-8.84v-35.15h-15.48v35.15c0,13.04,8.73,22.55,20.67,22.55,7.63,0,11.28-2.87,12.38-4.87h.44c-.11,1.22-.22,2.87-.22,5.08v11.28h-26.86v13.49h42.34v-82.69h-15.48Z"/>
    <rect class="cls-4" x="868.08" y="381.13" width="17.95" height="17.95"/>
    <polygon class="cls-1" points="868.39 416.53 868.39 403.08 852.91 403.08 852.91 418.55 866.95 418.55 868.08 419.83 868.08 475.46 883.56 475.46 883.56 418.2 869.86 418.2 868.39 416.53"/>
  </g>
</svg>